<svg width="208.514008" height="23.429688" viewBox="0 0 208.514 23.4297" fill="none" xmlns="http://www.w3.org/2000/svg" xmlns:xlink="http://www.w3.org/1999/xlink">
	<desc>
			Created with Pixso.
	</desc>
	<defs/>
	<path id="Зернышко" d="M18.23 12.98Q17.23 11.86 15.64 11.26Q16.79 10.7 17.54 9.8Q17.73 9.58 17.89 9.33Q18.16 8.93 18.34 8.48Q18.71 7.58 18.71 6.53Q18.71 5.53 18.37 4.67Q18.03 3.79 17.32 3.04Q15.93 1.57 13.58 0.78Q11.23 0 8.47 0Q4.72 0 1.51 1.32Q1.05 1.51 0.6 1.72L2.46 6.53Q2.62 6.44 2.78 6.36Q4.04 5.75 5.43 5.39Q7 4.99 8.41 4.99Q10.14 4.99 11.22 5.58Q11.91 5.95 12.16 6.52Q12.32 6.86 12.32 7.26Q12.32 7.69 12.14 8.03Q11.97 8.38 11.61 8.64Q10.91 9.15 9.63 9.15L4.41 9.15L4.41 13.79L10.14 13.79Q11.54 13.79 12.37 14.28Q12.77 14.5 12.98 14.85Q13.21 15.22 13.21 15.74Q13.21 16.15 13.06 16.5Q12.76 17.21 11.86 17.67Q10.52 18.36 8.41 18.36Q6.81 18.36 5.1 17.96Q3.39 17.57 1.88 16.8L0 21.21Q0.85 21.65 1.74 22Q3.07 22.52 4.49 22.85Q6.84 23.39 9.11 23.39Q12 23.39 14.39 22.57Q16.79 21.76 18.2 20.22Q18.92 19.44 19.27 18.51Q19.61 17.62 19.61 16.6Q19.61 15.55 19.26 14.63Q19 13.97 18.55 13.38Q18.4 13.17 18.23 12.98ZM37.95 22.78Q40.41 22.21 42.14 21.21L40.22 16.54Q38.77 17.4 36.84 17.9Q34.91 18.39 33.08 18.39Q30.52 18.39 29.31 17.79Q28.46 17.37 28.2 16.71Q28.09 16.42 28.09 16.1Q28.09 15.52 28.34 15.11Q28.55 14.77 28.91 14.54Q29.75 14.01 31.38 14.01L38.14 14.01L38.14 9.18L31.81 9.18Q29.91 9.18 29.31 8.3Q29.02 7.88 29.02 7.26Q29.02 6.91 29.14 6.61Q29.39 6.01 30.13 5.61Q31.26 5.02 33.53 5.02Q34.6 5.02 35.65 5.17Q37.7 5.46 39.67 6.33L41.4 1.6Q39.77 0.89 37.63 0.48Q37.3 0.42 36.98 0.36Q35.15 0.06 33.27 0.06Q29.75 0.06 27.35 0.99Q24.95 1.92 23.78 3.46Q23.1 4.35 22.82 5.35Q22.62 6.07 22.62 6.85Q22.62 7.76 22.9 8.59Q23.06 9.05 23.31 9.49Q23.51 9.84 23.77 10.15Q24.38 10.88 25.31 11.35Q23.8 12.01 22.88 13.14Q22.76 13.29 22.65 13.44Q22.33 13.89 22.11 14.39Q21.69 15.37 21.69 16.54Q21.69 17.6 22.04 18.53Q22.35 19.37 22.95 20.1Q24.22 21.63 26.73 22.5Q29.24 23.35 32.83 23.35Q35.49 23.35 37.95 22.78ZM190.11 22.08Q192.78 23.35 196.06 23.35Q199.33 23.35 201.99 22.08Q202.22 21.97 202.44 21.85Q204.18 20.93 205.47 19.57Q206.27 18.71 206.89 17.69Q207.33 16.97 207.65 16.2Q208.51 14.13 208.51 11.71Q208.51 9.28 207.65 7.21Q207.33 6.44 206.89 5.72Q206.26 4.69 205.45 3.83Q204.17 2.48 202.44 1.57Q202.2 1.44 201.95 1.32Q199.3 0.06 196.06 0.06Q192.81 0.06 190.16 1.32Q189.91 1.44 189.67 1.57Q187.97 2.47 186.7 3.79Q185.87 4.67 185.23 5.72Q184.79 6.44 184.47 7.21Q183.61 9.28 183.61 11.71Q183.61 14.13 184.47 16.2Q184.79 16.97 185.23 17.69Q185.86 18.73 186.68 19.6Q187.95 20.94 189.67 21.85Q189.89 21.97 190.11 22.08ZM61.31 2.6Q58.59 0.28 53.72 0.28Q48.73 0.28 46.13 2.75Q45.83 3.04 45.57 3.35Q43.55 5.75 43.55 9.85L43.55 22.91L49.78 22.91L49.78 16.77Q52.34 17.66 54.68 17.66Q59.06 17.66 61.5 15.48Q61.54 15.45 61.58 15.41Q62.11 14.92 62.52 14.35Q64.02 12.28 64.02 9.12Q64.02 6.09 62.61 4.04Q62.06 3.25 61.31 2.6ZM88.31 22.91L88.31 0.51L81.98 0.51L81.98 8.92L73.34 8.92L73.34 0.51L67 0.51L67 22.91L73.34 22.91L73.34 14.17L81.98 14.17L81.98 22.91L88.31 22.91ZM110.81 9.21Q108.41 7.14 104.12 7.14Q101.63 7.14 98.97 8.16L98.97 0.51L92.73 0.51L92.73 14.85Q92.73 18.4 94.48 20.5Q94.82 20.91 95.24 21.27Q97.75 23.42 102.71 23.42Q107.77 23.42 110.49 21.27Q111.35 20.58 111.94 19.71Q113.21 17.83 113.21 15.1Q113.21 12.23 111.84 10.34Q111.4 9.72 110.81 9.21ZM121.88 22.91L121.88 0.51L115.61 0.51L115.61 22.91L121.88 22.91ZM157.05 22.91L157.05 0.51L150.81 0.51L150.81 17.89L145.02 17.89L145.02 0.51L138.77 0.51L138.77 17.89L132.92 17.89L132.92 0.51L126.68 0.51L126.68 22.91L157.05 22.91ZM168.03 14.33L170.9 14.33L176 22.91L183.13 22.91L176.06 11.32L183.07 0.51L176.41 0.51L171.07 9.21L168.03 9.21L168.03 0.51L161.72 0.51L161.72 22.91L168.03 22.91L168.03 14.33ZM198.39 17.68Q197.31 18.11 196.06 18.11Q194.84 18.11 193.78 17.7Q193.37 17.54 192.99 17.32Q192.5 17.03 192.09 16.67Q191.33 16 190.81 15.06Q190.8 15.04 190.79 15.03Q190.01 13.58 190.01 11.71Q190.01 9.85 190.79 8.41Q190.8 8.39 190.81 8.37Q191.34 7.4 192.13 6.72Q192.53 6.38 192.99 6.11Q193.39 5.88 193.81 5.71Q194.86 5.31 196.06 5.31Q197.29 5.31 198.35 5.73Q198.75 5.89 199.13 6.11Q199.61 6.39 200.01 6.74Q200.78 7.41 201.31 8.37Q201.33 8.41 201.35 8.45Q202.11 9.88 202.11 11.71Q202.11 13.55 201.34 14.99Q201.33 15.02 201.31 15.06Q200.8 15.98 200.05 16.65Q199.63 17.02 199.13 17.32Q198.77 17.53 198.39 17.68ZM56.62 12.08Q55.58 13.05 53.63 13.05Q52.01 13.05 50.64 12.46Q50.2 12.28 49.78 12.03L49.78 9.79Q49.78 7.78 50.78 6.64Q50.82 6.6 50.85 6.56Q51.08 6.32 51.34 6.13Q52.33 5.4 53.85 5.4Q55.35 5.4 56.3 6.12Q56.48 6.26 56.65 6.43Q56.8 6.58 56.92 6.75Q57.66 7.72 57.66 9.25Q57.66 10.89 56.85 11.84Q56.74 11.97 56.62 12.08ZM105.85 17.73Q104.85 18.62 103.03 18.62Q101.19 18.62 100.14 17.7Q100.08 17.65 100.03 17.6Q99.9 17.47 99.79 17.34Q98.97 16.35 98.97 14.68L98.97 12.77Q99.8 12.32 100.81 12.07Q101.82 11.81 102.81 11.81Q104.7 11.81 105.77 12.69Q106.04 12.92 106.25 13.19Q106.84 13.99 106.84 15.23Q106.84 16.45 106.26 17.26Q106.08 17.52 105.85 17.73Z" fill="#45403D" fill-opacity="1.000000" fill-rule="evenodd"/>
</svg>
